{"title":"Due Date 2010 720p XviD BRRip DragonTrG","uid":6148854,"size":2512025646,"categoryP":"video","categoryS":"hd___movies","magnet":"?xt=urn:btih:26024e456772c5d128c80030c0dd0dee36fc7c1c&amp;dn=Due+Date+2010+720p+XviD+BRRip+DragonTrG&amp;tr=udp%3A%2F%2Ftracker.openbittorrent.com%3A80&amp;tr=udp%3A%2F%2Fopen.demonii.com%3A1337&amp;tr=udp%3A%2F%2Ftracker.coppersurfer.tk%3A6969&amp;tr=udp%3A%2F%2Fexodus.desync.com%3A6969","seeders":0,"leechers":0,"uploader":"SAFCukO09","files":2,"time":1296802399,"description":"Format : AVI\nFormat/Info : Audio Video Interleave\nFormat profile : OpenDML\nFile size : 2.34 GiB\nDuration : 1h 35mn\nOverall bit rate : 3 516 Kbps\nWriting application : VirtualDubMod 1.5.10.3 | www.virtualdub-fr.org || (build 2550/release)\nWriting library : VirtualDubMod build 2550/release\n\nVideo\nID : 0\nFormat : MPEG-4 Visual\nFormat profile : Advanced Simple@L5\nFormat settings, BVOP : Yes\nFormat settings, QPel : No\nFormat settings, GMC : No warppoints\nFormat settings, Matrix : Custom\nCodec ID : XVID\nCodec ID/Hint : XviD\nDuration : 1h 35mn\nBit rate : 3 057 Kbps\nWidth : 1 280 pixels\nHeight : 528 pixels\nDisplay aspect ratio : 2.40:1\nFrame rate : 23.976 fps\nColor space : YUV\nChroma subsampling : 4:2:0\nBit depth : 8 bits\nScan type : Progressive\nBits/(Pixel*Frame) : 0.189\nStream size : 2.03 GiB (87%)\nWriting library : XviD 1.2.1 (UTC 2008-12-04)\n\nAudio\nID : 1\nFormat : AC-3\nFormat/Info : Audio Coding 3\nMode extension : CM (complete main)\nCodec ID : 2000\nDuration : 1h 35mn\nBit rate mode : Constant\nBit rate : 448 Kbps\nChannel(s) : 6 channels\nChannel positions : Front: L C R, Side: L R, LFE\nSampling rate : 48.0 KHz\nBit depth : 16 bits\nStream size : 305 MiB (13%)\nAlignment : Split accross interleaves\nInterleave, duration : 42 ms (1.00 video frame)\nInterleave, preload duration : 500 ms\n &lt;a href=&quot;\nhttp://www.imdb.com/title/tt1231583/&quot; rel=&quot;nofollow&quot; target=&quot;_NEW&quot;&gt;\nhttp://www.imdb.com/title/tt1231583/&lt;/a&gt;\n\n\nUsers: 6.9/10 (18,787 votes) 133 reviews | Critics: 206 reviews Metascore: 51/100 (based on 39 reviews from Metacritic.com)\n\nHigh-strung father-to-be Peter Highman is forced to hitch a ride with aspiring actor Ethan Tremblay on a road trip in order to make it to his child's birth on time.\nDirector:\nTodd Phillips\nWriters:\nAlan R. Cohen (screenplay), Alan Freedland (screenplay), and 4 more credits Ã‚Â»\nStars:\nRobert Downey Jr., Zach Galifianakis and Michel\n\n\n\nEncoded by SAFCuk009\n\nGreetz to Imagine ,Flawl3ss ,Santi ,Vision ,Kingdom,BDK,DiGiTALiNK,LEGION,Classified,THC,WBZ,Rx ,Feel Free and to all who share","torrent":{"xt":"urn:btih:26024e456772c5d128c80030c0dd0dee36fc7c1c","amp;dn":"Due+Date+2010+720p+XviD+BRRip+DragonTrG","amp;tr":["udp%3A%2F%2Ftracker.openbittorrent.com%3A80","udp%3A%2F%2Fopen.demonii.com%3A1337","udp%3A%2F%2Ftracker.coppersurfer.tk%3A6969","udp%3A%2F%2Fexodus.desync.com%3A6969"],"infoHash":"26024e456772c5d128c80030c0dd0dee36fc7c1c","infoHashBuffer":{"type":"Buffer","data":[38,2,78,69,103,114,197,209,40,200,0,48,192,221,13,238,54,252,124,28]},"announce":[],"urlList":[]}}